<svg xmlns="http://www.w3.org/2000/svg" xmlns:xlink="http://www.w3.org/1999/xlink" contentStyleType="text/css" data-diagram-type="DESCRIPTION" height="523px" preserveAspectRatio="none" style="width:739px;height:523px;background:#FFFFFF;" version="1.1" viewBox="0 0 739 523" width="739px" zoomAndPan="magnify"><?plantuml 1.2026.3beta5?><defs/><g><!--cluster Colors LAMP Application--><g class="cluster" data-qualified-name="Colors LAMP Application" data-source-line="8" id="ent0004"><rect fill="none" height="502" rx="2.5" ry="2.5" style="stroke:#181818;stroke-width:1;" width="628.12" x="97.86" y="7"/><text fill="#000000" font-family="sans-serif" font-size="14" font-weight="700" lengthAdjust="spacing" textLength="192.541" x="315.6495" y="21.9951">Colors LAMP Application</text></g><!--entity UC_Login--><g class="entity" data-qualified-name="Colors LAMP Application.UC_Login" data-source-line="9" id="ent0005"><ellipse cx="150.9304" cy="57.0036" fill="#F1F1F1" rx="29.8804" ry="14.5236" style="stroke:#181818;stroke-width:0.5;"/><text fill="#000000" font-family="sans-serif" font-size="14" lengthAdjust="spacing" textLength="38.0146" x="131.9231" y="61.6521">Login</text></g><!--entity UC_Logout--><g class="entity" data-qualified-name="Colors LAMP Application.UC_Logout" data-source-line="10" id="ent0006"><ellipse cx="150.9282" cy="121.0036" fill="#F1F1F1" rx="37.0682" ry="14.5236" style="stroke:#181818;stroke-width:0.5;"/><text fill="#000000" font-family="sans-serif" font-size="14" lengthAdjust="spacing" textLength="48.1797" x="126.8383" y="125.6521">Logout</text></g><!--entity UC_SearchColors--><g class="entity" data-qualified-name="Colors LAMP Application.UC_SearchColors" data-source-line="11" id="ent0007"><ellipse cx="406.4574" cy="150.9955" fill="#F1F1F1" rx="85.1274" ry="19.4255" style="stroke:#181818;stroke-width:0.5;"/><text fill="#000000" font-family="sans-serif" font-size="14" lengthAdjust="spacing" textLength="142.6182" x="335.1483" y="155.6439">Search Color Entries</text></g><!--entity UC_CreateColor--><g class="entity" data-qualified-name="Colors LAMP Application.UC_CreateColor" data-source-line="12" id="ent0008"><ellipse cx="406.4631" cy="237.0026" fill="#F1F1F1" rx="79.5131" ry="18.3026" style="stroke:#181818;stroke-width:0.5;"/><text fill="#000000" font-family="sans-serif" font-size="14" lengthAdjust="spacing" textLength="129.5273" x="341.6995" y="241.6511">Create Color Entry</text></g><!--entity UC_CreateUser--><g class="entity" data-qualified-name="Colors LAMP Application.UC_CreateUser" data-source-line="15" id="ent0009"><ellipse cx="406.459" cy="316.0018" fill="#F1F1F1" rx="77.559" ry="17.9118" style="stroke:#181818;stroke-width:0.5;"/><text fill="#000000" font-family="sans-serif" font-size="14" lengthAdjust="spacing" textLength="124.8857" x="344.0161" y="320.6502">Create User Entry</text></g><!--entity UC_DeleteUser--><g class="entity" data-qualified-name="Colors LAMP Application.UC_DeleteUser" data-source-line="16" id="ent0010"><ellipse cx="406.4629" cy="387.0026" fill="#F1F1F1" rx="77.2129" ry="17.8426" style="stroke:#181818;stroke-width:0.5;"/><text fill="#000000" font-family="sans-serif" font-size="14" lengthAdjust="spacing" textLength="124.0586" x="344.4336" y="391.651">Delete User Entry</text></g><!--entity UC_DeleteColor--><g class="entity" data-qualified-name="Colors LAMP Application.UC_DeleteColor" data-source-line="17" id="ent0011"><ellipse cx="406.4634" cy="458.0027" fill="#F1F1F1" rx="79.1634" ry="18.2327" style="stroke:#181818;stroke-width:0.5;"/><text fill="#000000" font-family="sans-serif" font-size="14" lengthAdjust="spacing" textLength="128.7002" x="342.1133" y="462.6511">Delete Color Entry</text></g><!--entity UC_VerifyCredentials--><g class="entity" data-qualified-name="Colors LAMP Application.UC_VerifyCredentials" data-source-line="20" id="ent0012"><ellipse cx="406.4648" cy="63.001" fill="#F1F1F1" rx="93.4548" ry="21.091" style="stroke:#181818;stroke-width:0.5;"/><text fill="#000000" font-family="sans-serif" font-size="14" lengthAdjust="spacing" textLength="161.5195" x="325.705" y="67.6494">Verify User Credentials</text></g><!--entity UC_UserID--><g class="entity" data-qualified-name="Colors LAMP Application.UC_UserID" data-source-line="21" id="ent0013"><ellipse cx="667.453" cy="230.0036" fill="#F1F1F1" rx="39.253" ry="14.5236" style="stroke:#181818;stroke-width:0.5;"/><text fill="#000000" font-family="sans-serif" font-size="14" lengthAdjust="spacing" textLength="51.2695" x="641.8183" y="234.6521">User ID</text></g><!--entity UC_ColorID--><g class="entity" data-qualified-name="Colors LAMP Application.UC_ColorID" data-source-line="22" id="ent0014"><ellipse cx="667.4451" cy="405.0036" fill="#F1F1F1" rx="42.5351" ry="14.5236" style="stroke:#181818;stroke-width:0.5;"/><text fill="#000000" font-family="sans-serif" font-size="14" lengthAdjust="spacing" textLength="55.9111" x="639.4896" y="409.6521">Color ID</text></g><!--entity User--><g class="entity" data-qualified-name="User" data-source-line="4" id="ent0002"><ellipse cx="28.4351" cy="210.35" fill="#F1F1F1" rx="8" ry="8" style="stroke:#181818;stroke-width:0.5;"/><path d="M28.4351,218.35 L28.4351,245.35 M15.4351,226.35 L41.4351,226.35 M28.4351,245.35 L15.4351,260.35 M28.4351,245.35 L41.4351,260.35" fill="none" style="stroke:#181818;stroke-width:0.5;"/><text fill="#000000" font-family="sans-serif" font-size="14" lengthAdjust="spacing" textLength="31.9102" x="12.48" y="274.8451">User</text></g><!--entity Admin--><g class="entity" data-qualified-name="Admin" data-source-line="5" id="ent0003"><ellipse cx="28.4321" cy="321.35" fill="#F1F1F1" rx="8" ry="8" style="stroke:#181818;stroke-width:0.5;"/><path d="M28.4321,329.35 L28.4321,356.35 M15.4321,337.35 L41.4321,337.35 M28.4321,356.35 L15.4321,371.35 M28.4321,356.35 L41.4321,371.35" fill="none" style="stroke:#181818;stroke-width:0.5;"/><text fill="#000000" font-family="sans-serif" font-size="14" lengthAdjust="spacing" textLength="44.8643" x="6" y="385.8451">Admin</text></g><!--link User to UC_Login--><g class="link" data-entity-1="ent0002" data-entity-2="ent0005" data-link-type="dependency" data-source-line="25" id="lnk15"><path d="M36.98,201.63 C45.17,168.51 61.12,121.06 89.86,89 C99.49,78.27 108.0661,72.8657 120.1861,67.6657" fill="none" id="User-to-UC_Login" style="stroke:#181818;stroke-width:1;"/><polygon fill="#181818" points="125.7,65.3,115.852,65.1726,121.1051,67.2714,119.0062,72.5245,125.7,65.3" style="stroke:#181818;stroke-width:1;"/></g><!--link User to UC_Logout--><g class="link" data-entity-1="ent0002" data-entity-2="ent0006" data-link-type="dependency" data-source-line="26" id="lnk16"><path d="M44.87,210.7 C53.96,195.29 66.47,176.79 80.86,163 C94.14,150.28 106.5922,142.3587 120.7922,134.9387" fill="none" id="User-to-UC_Logout" style="stroke:#181818;stroke-width:1;"/><polygon fill="#181818" points="126.11,132.16,116.2809,132.7829,121.6785,134.4756,119.9858,139.8733,126.11,132.16" style="stroke:#181818;stroke-width:1;"/></g><!--link User to UC_SearchColors--><g class="link" data-entity-1="ent0002" data-entity-2="ent0007" data-link-type="dependency" data-source-line="27" id="lnk17"><path d="M44.7,230.87 C54.68,225.26 68.18,218.34 80.86,214 C163.55,185.69 256.7445,169.5766 323.5245,160.5166" fill="none" id="User-to-UC_SearchColors" style="stroke:#181818;stroke-width:1;"/><polygon fill="#181818" points="329.47,159.71,320.014,156.9563,324.5154,160.3822,321.0895,164.8836,329.47,159.71" style="stroke:#181818;stroke-width:1;"/></g><!--link User to UC_CreateColor--><g class="link" data-entity-1="ent0002" data-entity-2="ent0008" data-link-type="dependency" data-source-line="28" id="lnk18"><path d="M44.64,239.88 C91.42,239.51 229.5602,238.408 320.8702,237.678" fill="none" id="User-to-UC_CreateColor" style="stroke:#181818;stroke-width:1;"/><polygon fill="#181818" points="326.87,237.63,317.8383,233.7021,321.8702,237.67,317.9023,241.7018,326.87,237.63" style="stroke:#181818;stroke-width:1;"/></g><!--link Admin to UC_CreateUser--><g class="link" data-entity-1="ent0003" data-entity-2="ent0009" data-link-type="dependency" data-source-line="30" id="lnk19"><path d="M51.23,364.39 C62.35,370.45 76.36,376.93 89.86,380 C173.56,399.04 203.14,411.48 283,380 C299.97,373.31 297.56,361.71 313,352 C327,343.2 337.8766,338.0321 353.0366,332.3921" fill="none" id="Admin-to-UC_CreateUser" style="stroke:#181818;stroke-width:1;"/><polygon fill="#181818" points="358.66,330.3,348.8301,329.6892,353.9738,332.0434,351.6196,337.1871,358.66,330.3" style="stroke:#181818;stroke-width:1;"/></g><!--link Admin to UC_CreateColor--><g class="link" data-entity-1="ent0003" data-entity-2="ent0008" data-link-type="dependency" data-source-line="31" id="lnk20"><path d="M51.27,344.38 C110.37,326.46 268.7281,278.451 351.1481,253.461" fill="none" id="Admin-to-UC_CreateColor" style="stroke:#181818;stroke-width:1;"/><polygon fill="#181818" points="356.89,251.72,347.1166,250.5035,352.1051,253.1708,349.4378,258.1593,356.89,251.72" style="stroke:#181818;stroke-width:1;"/></g><!--link Admin to UC_DeleteUser--><g class="link" data-entity-1="ent0003" data-entity-2="ent0010" data-link-type="dependency" data-source-line="32" id="lnk21"><path d="M51.13,378.67 C61.52,389.7 74.95,401.15 89.86,407 C180.46,442.52 291.1125,420.8887 354.1825,403.2187" fill="none" id="Admin-to-UC_DeleteUser" style="stroke:#181818;stroke-width:1;"/><polygon fill="#181818" points="359.96,401.6,350.2146,400.1763,355.1454,402.9489,352.3728,407.8797,359.96,401.6" style="stroke:#181818;stroke-width:1;"/></g><!--link Admin to UC_DeleteColor--><g class="link" data-entity-1="ent0003" data-entity-2="ent0011" data-link-type="dependency" data-source-line="33" id="lnk22"><path d="M47.68,389.28 C57.7,405.94 71.81,423.93 89.86,434 C167.37,477.22 266.7241,476.0984 333.9141,468.9084" fill="none" id="Admin-to-UC_DeleteColor" style="stroke:#181818;stroke-width:1;"/><polygon fill="#181818" points="339.88,468.27,330.5055,465.2503,334.9084,468.802,331.3567,473.2049,339.88,468.27" style="stroke:#181818;stroke-width:1;"/></g><!--link UC_CreateUser to UC_UserID--><g class="link" data-entity-1="ent0009" data-entity-2="ent0013" data-link-type="dependency" data-source-line="35" id="lnk23"><path d="M483.98,314.98 C519.04,312.14 560.38,305.33 594.91,290 C618.91,279.34 637.0974,262.5469 650.2174,248.4169" fill="none" id="UC_CreateUser-to-UC_UserID" style="stroke:#181818;stroke-width:1;stroke-dasharray:7,7;"/><polygon fill="#181818" points="654.3,244.02,645.2449,247.8936,650.8978,247.6841,651.1074,253.337,654.3,244.02" style="stroke:#181818;stroke-width:1;"/><text fill="#000000" font-family="sans-serif" font-size="13" lengthAdjust="spacing" textLength="63.0068" x="530.91" y="286.0669">«include»</text></g><!--link UC_CreateColor to UC_UserID--><g class="link" data-entity-1="ent0008" data-entity-2="ent0013" data-link-type="dependency" data-source-line="36" id="lnk24"><path d="M459.14,222.95 C496.77,214.47 548.97,206.31 594.91,212 C608.76,213.72 618.0036,215.6432 630.6936,219.1232" fill="none" id="UC_CreateColor-to-UC_UserID" style="stroke:#181818;stroke-width:1;stroke-dasharray:7,7;"/><polygon fill="#181818" points="636.48,220.71,628.8583,214.4722,631.658,219.3877,626.7426,222.1874,636.48,220.71" style="stroke:#181818;stroke-width:1;"/><text fill="#000000" font-family="sans-serif" font-size="13" lengthAdjust="spacing" textLength="63.0068" x="530.91" y="207.0669">«include»</text></g><!--link UC_CreateColor to UC_ColorID--><g class="link" data-entity-1="ent0008" data-entity-2="ent0014" data-link-type="dependency" data-source-line="37" id="lnk25"><path d="M485.59,234.99 C521.81,237.68 563.65,246.31 594.91,269 C636.8,299.4 654.8503,356.0028 661.8303,384.4528" fill="none" id="UC_CreateColor-to-UC_ColorID" style="stroke:#181818;stroke-width:1;stroke-dasharray:7,7;"/><polygon fill="#181818" points="663.26,390.28,665.0003,380.5861,662.0686,385.424,657.2307,382.4923,663.26,390.28" style="stroke:#181818;stroke-width:1;"/><text fill="#000000" font-family="sans-serif" font-size="13" lengthAdjust="spacing" textLength="63.0068" x="530.91" y="239.0669">«include»</text></g><!--link UC_DeleteUser to UC_UserID--><g class="link" data-entity-1="ent0010" data-entity-2="ent0013" data-link-type="dependency" data-source-line="38" id="lnk26"><path d="M476.14,379.17 C513.96,372.16 560.14,358.92 594.91,334 C627.68,310.51 647.8441,272.5343 657.9741,249.9543" fill="none" id="UC_DeleteUser-to-UC_UserID" style="stroke:#181818;stroke-width:1;stroke-dasharray:7,7;"/><polygon fill="#181818" points="660.43,244.48,653.0965,251.0542,658.3834,249.0419,660.3957,254.3288,660.43,244.48" style="stroke:#181818;stroke-width:1;"/><text fill="#000000" font-family="sans-serif" font-size="13" lengthAdjust="spacing" textLength="63.0068" x="530.91" y="330.0669">«include»</text></g><!--link UC_DeleteColor to UC_UserID--><g class="link" data-entity-1="ent0011" data-entity-2="ent0013" data-link-type="dependency" data-source-line="39" id="lnk27"><path d="M472.34,447.71 C511.92,438.49 561.19,421.36 594.91,390 C639.03,348.97 656.5169,281.5842 662.7169,250.4842" fill="none" id="UC_DeleteColor-to-UC_UserID" style="stroke:#181818;stroke-width:1;stroke-dasharray:7,7;"/><polygon fill="#181818" points="663.89,244.6,658.2076,252.6443,662.9125,249.5035,666.0532,254.2084,663.89,244.6" style="stroke:#181818;stroke-width:1;"/><text fill="#000000" font-family="sans-serif" font-size="13" lengthAdjust="spacing" textLength="63.0068" x="530.91" y="386.0669">«include»</text></g><!--link UC_DeleteColor to UC_ColorID--><g class="link" data-entity-1="ent0011" data-entity-2="ent0014" data-link-type="dependency" data-source-line="40" id="lnk28"><path d="M469.49,469.44 C506.83,473.8 554.76,474.85 594.91,461 C618.77,452.77 636.5984,437.2818 649.7284,423.5818" fill="none" id="UC_DeleteColor-to-UC_ColorID" style="stroke:#181818;stroke-width:1;stroke-dasharray:7,7;"/><polygon fill="#181818" points="653.88,419.25,644.7648,422.98,650.4204,422.8598,650.5405,428.5154,653.88,419.25" style="stroke:#181818;stroke-width:1;"/><text fill="#000000" font-family="sans-serif" font-size="13" lengthAdjust="spacing" textLength="63.0068" x="530.91" y="457.0669">«include»</text></g><!--link UC_Login to UC_VerifyCredentials--><g class="link" data-entity-1="ent0005" data-entity-2="ent0012" data-link-type="dependency" data-source-line="41" id="lnk29"><path d="M181.01,57.69 C213.14,58.45 260.5017,59.5672 307.1417,60.6772" fill="none" id="UC_Login-to-UC_VerifyCredentials" style="stroke:#181818;stroke-width:1;stroke-dasharray:7,7;"/><polygon fill="#181818" points="313.14,60.82,304.2377,56.607,308.1414,60.701,304.0474,64.6047,313.14,60.82" style="stroke:#181818;stroke-width:1;"/><text fill="#000000" font-family="sans-serif" font-size="13" lengthAdjust="spacing" textLength="63.0068" x="219" y="55.0669">«include»</text></g><!--link UC_VerifyCredentials to UC_UserID--><g class="link" data-entity-1="ent0012" data-entity-2="ent0013" data-link-type="dependency" data-source-line="42" id="lnk30"><path d="M464.41,79.79 C503.58,93.13 555.45,114.48 594.91,144 C622.12,164.36 642.2937,192.037 654.4037,210.697" fill="none" id="UC_VerifyCredentials-to-UC_UserID" style="stroke:#181818;stroke-width:1;stroke-dasharray:7,7;"/><polygon fill="#181818" points="657.67,215.73,656.1258,206.0029,654.9481,211.5358,649.4152,210.358,657.67,215.73" style="stroke:#181818;stroke-width:1;"/><text fill="#000000" font-family="sans-serif" font-size="13" lengthAdjust="spacing" textLength="63.0068" x="530.91" y="104.0669">«include»</text></g><!--link UC_SearchColors to UC_UserID--><g class="link" data-entity-1="ent0007" data-entity-2="ent0013" data-link-type="dependency" data-source-line="43" id="lnk31"><path d="M484.91,158.96 C519.39,164.14 560,172.54 594.91,186 C614.77,193.66 630.3704,203.3986 644.2904,213.3586" fill="none" id="UC_SearchColors-to-UC_UserID" style="stroke:#181818;stroke-width:1;stroke-dasharray:7,7;"/><polygon fill="#181818" points="649.17,216.85,644.1783,208.3599,645.1037,213.9405,639.5231,214.8659,649.17,216.85" style="stroke:#181818;stroke-width:1;"/><text fill="#000000" font-family="sans-serif" font-size="13" lengthAdjust="spacing" textLength="63.0068" x="530.91" y="165.0669">«include»</text></g><?plantuml-src dL91QiCm4Bph5KlkoGDAC1YxXq0AWP9UYv0tja2LWYGVGidVAqjsB4LE0pdkpipkQ5O2JnQi0itRpaB3DJBBbIJ4gXPjXnf-2G1bLcau6jItecn-k2HNGWO5bQr0M5LAA6rWNtuSe3oV1MTq6BRoCtg3Z1h7sgkMknurSAo-VN67gjv6iAjY_1EfPXtuLV0khUPe9dR0WejOKsca5YFDPL84n0F4AP97vmE609RqOp2He4Q1Yu80F1GiM0n8i0Xm9V73lb3pqoMiSLOQb9PJSSiZm14GQxreLq_SeTpLIMhUoypmjQCu2rwxNXVp1Uywmz52gyWE4rEJ_FsNIX4Vr48_A18WIdQXFwv81iDcKynFXpVORhbaec-mA4YwwWNg65VEdOq-cnfPVu7wq82_sCJA_aZEpobFpCJd_e_x1m00?></g></svg>