<svg xmlns="http://www.w3.org/2000/svg" xmlns:xlink="http://www.w3.org/1999/xlink" contentStyleType="text/css" data-diagram-type="DESCRIPTION" height="614px" preserveAspectRatio="none" style="width:727px;height:614px;background:#FFFFFF;" version="1.1" viewBox="0 0 727 614" width="727px" zoomAndPan="magnify"><?plantuml 1.2026.3beta5?><defs/><g><!--cluster Colors LAMP Application--><g class="cluster" data-qualified-name="Colors LAMP Application" data-source-line="10" id="ent0004"><rect fill="none" height="502" rx="2.5" ry="2.5" style="stroke:#181818;stroke-width:1;" width="628.12" x="84.91" y="7"/><text fill="#000000" font-family="sans-serif" font-size="14" font-weight="700" lengthAdjust="spacing" textLength="192.541" x="302.6995" y="21.9951">Colors LAMP Application</text></g><!--entity UC_Login--><g class="entity" data-qualified-name="Colors LAMP Application.UC_Login" data-source-line="12" id="ent0005"><ellipse cx="137.9804" cy="57.0036" fill="#F1F1F1" rx="29.8804" ry="14.5236" style="stroke:#181818;stroke-width:0.5;"/><text fill="#000000" font-family="sans-serif" font-size="14" lengthAdjust="spacing" textLength="38.0146" x="118.9731" y="61.6521">Login</text></g><!--entity UC_Logout--><g class="entity" data-qualified-name="Colors LAMP Application.UC_Logout" data-source-line="13" id="ent0006"><ellipse cx="137.9782" cy="121.0036" fill="#F1F1F1" rx="37.0682" ry="14.5236" style="stroke:#181818;stroke-width:0.5;"/><text fill="#000000" font-family="sans-serif" font-size="14" lengthAdjust="spacing" textLength="48.1797" x="113.8883" y="125.6521">Logout</text></g><!--entity UC_SearchColors--><g class="entity" data-qualified-name="Colors LAMP Application.UC_SearchColors" data-source-line="14" id="ent0007"><ellipse cx="393.4974" cy="150.9955" fill="#F1F1F1" rx="85.1274" ry="19.4255" style="stroke:#181818;stroke-width:0.5;"/><text fill="#000000" font-family="sans-serif" font-size="14" lengthAdjust="spacing" textLength="142.6182" x="322.1883" y="155.6439">Search Color Entries</text></g><!--entity UC_CreateColor--><g class="entity" data-qualified-name="Colors LAMP Application.UC_CreateColor" data-source-line="15" id="ent0008"><ellipse cx="393.5031" cy="237.0026" fill="#F1F1F1" rx="79.5131" ry="18.3026" style="stroke:#181818;stroke-width:0.5;"/><text fill="#000000" font-family="sans-serif" font-size="14" lengthAdjust="spacing" textLength="129.5273" x="328.7395" y="241.6511">Create Color Entry</text></g><!--entity UC_CreateUser--><g class="entity" data-qualified-name="Colors LAMP Application.UC_CreateUser" data-source-line="19" id="ent0009"><ellipse cx="393.499" cy="316.0018" fill="#F1F1F1" rx="77.559" ry="17.9118" style="stroke:#181818;stroke-width:0.5;"/><text fill="#000000" font-family="sans-serif" font-size="14" lengthAdjust="spacing" textLength="124.8857" x="331.0561" y="320.6502">Create User Entry</text></g><!--entity UC_DeleteUser--><g class="entity" data-qualified-name="Colors LAMP Application.UC_DeleteUser" data-source-line="20" id="ent0010"><ellipse cx="393.5029" cy="387.0026" fill="#F1F1F1" rx="77.2129" ry="17.8426" style="stroke:#181818;stroke-width:0.5;"/><text fill="#000000" font-family="sans-serif" font-size="14" lengthAdjust="spacing" textLength="124.0586" x="331.4736" y="391.651">Delete User Entry</text></g><!--entity UC_DeleteColor--><g class="entity" data-qualified-name="Colors LAMP Application.UC_DeleteColor" data-source-line="21" id="ent0011"><ellipse cx="393.5034" cy="458.0027" fill="#F1F1F1" rx="79.1634" ry="18.2327" style="stroke:#181818;stroke-width:0.5;"/><text fill="#000000" font-family="sans-serif" font-size="14" lengthAdjust="spacing" textLength="128.7002" x="329.1533" y="462.6511">Delete Color Entry</text></g><!--entity UC_VerifyCredentials--><g class="entity" data-qualified-name="Colors LAMP Application.UC_VerifyCredentials" data-source-line="25" id="ent0012"><ellipse cx="393.5048" cy="63.001" fill="#F1F1F1" rx="93.4548" ry="21.091" style="stroke:#181818;stroke-width:0.5;"/><text fill="#000000" font-family="sans-serif" font-size="14" lengthAdjust="spacing" textLength="161.5195" x="312.745" y="67.6494">Verify User Credentials</text></g><!--entity UC_UserID--><g class="entity" data-qualified-name="Colors LAMP Application.UC_UserID" data-source-line="26" id="ent0013"><ellipse cx="654.493" cy="230.0036" fill="#F1F1F1" rx="39.253" ry="14.5236" style="stroke:#181818;stroke-width:0.5;"/><text fill="#000000" font-family="sans-serif" font-size="14" lengthAdjust="spacing" textLength="51.2695" x="628.8583" y="234.6521">User ID</text></g><!--entity UC_ColorID--><g class="entity" data-qualified-name="Colors LAMP Application.UC_ColorID" data-source-line="27" id="ent0014"><ellipse cx="654.4851" cy="405.0036" fill="#F1F1F1" rx="42.5351" ry="14.5236" style="stroke:#181818;stroke-width:0.5;"/><text fill="#000000" font-family="sans-serif" font-size="14" lengthAdjust="spacing" textLength="55.9111" x="626.5296" y="409.6521">Color ID</text></g><!--entity User--><g class="entity" data-qualified-name="User" data-source-line="5" id="ent0002"><ellipse cx="21.9551" cy="139.35" fill="#F1F1F1" rx="8" ry="8" style="stroke:#181818;stroke-width:0.5;"/><path d="M21.9551,147.35 L21.9551,174.35 M8.9551,155.35 L34.9551,155.35 M21.9551,174.35 L8.9551,189.35 M21.9551,174.35 L34.9551,189.35" fill="none" style="stroke:#181818;stroke-width:0.5;"/><text fill="#000000" font-family="sans-serif" font-size="14" lengthAdjust="spacing" textLength="31.9102" x="6" y="203.8451">User</text></g><!--entity Admin--><g class="entity" data-qualified-name="Admin" data-source-line="6" id="ent0003"><ellipse cx="137.9821" cy="533.35" fill="#F1F1F1" rx="8" ry="8" style="stroke:#181818;stroke-width:0.5;"/><path d="M137.9821,541.35 L137.9821,568.35 M124.9821,549.35 L150.9821,549.35 M137.9821,568.35 L124.9821,583.35 M137.9821,568.35 L150.9821,583.35" fill="none" style="stroke:#181818;stroke-width:0.5;"/><text fill="#000000" font-family="sans-serif" font-size="14" lengthAdjust="spacing" textLength="44.8643" x="115.55" y="597.8451">Admin</text></g><!--link User to UC_Login--><g class="link" data-entity-1="ent0002" data-entity-2="ent0005" data-link-type="dependency" data-source-line="31" id="lnk15"><path d="M38.21,139.38 C47.7,123.04 61.11,103.24 76.91,89 C87.71,79.27 96.5408,73.9894 108.4708,68.5494" fill="none" id="User-to-UC_Login" style="stroke:#181818;stroke-width:1;"/><polygon fill="#181818" points="113.93,66.06,104.0816,66.1546,109.3807,68.1345,107.4008,73.4335,113.93,66.06" style="stroke:#181818;stroke-width:1;"/></g><!--link User to UC_Logout--><g class="link" data-entity-1="ent0002" data-entity-2="ent0006" data-link-type="dependency" data-source-line="32" id="lnk16"><path d="M38.33,162.53 C57.18,154.6 83.8301,143.3781 106.3001,133.9181" fill="none" id="User-to-UC_Logout" style="stroke:#181818;stroke-width:1;"/><polygon fill="#181818" points="111.83,131.59,101.9831,131.3956,107.2217,133.5301,105.0872,138.7688,111.83,131.59" style="stroke:#181818;stroke-width:1;"/></g><!--link User to UC_SearchColors--><g class="link" data-entity-1="ent0002" data-entity-2="ent0007" data-link-type="dependency" data-source-line="33" id="lnk17"><path d="M38.36,168.25 C83.92,166.03 214.3871,159.6823 303.9971,155.3123" fill="none" id="User-to-UC_SearchColors" style="stroke:#181818;stroke-width:1;"/><polygon fill="#181818" points="309.99,155.02,300.8058,151.4631,304.9959,155.2635,301.1955,159.4536,309.99,155.02" style="stroke:#181818;stroke-width:1;"/></g><!--link User to UC_CreateColor--><g class="link" data-entity-1="ent0002" data-entity-2="ent0008" data-link-type="dependency" data-source-line="34" id="lnk18"><path d="M38.36,171.84 C87.54,180.89 236.739,208.3447 324.499,224.4847" fill="none" id="User-to-UC_CreateColor" style="stroke:#181818;stroke-width:1;"/><polygon fill="#181818" points="330.4,225.57,322.272,220.0081,325.4825,224.6656,320.8249,227.8761,330.4,225.57" style="stroke:#181818;stroke-width:1;"/></g><!--link Admin to UC_CreateUser--><g class="link" data-entity-1="ent0003" data-entity-2="ent0009" data-link-type="dependency" data-source-line="37" id="lnk19"><path d="M160.87,532.15 C165.78,524.72 170.79,516.7 175.05,509 C190.83,480.45 186.18,468.62 205.05,442 C238.68,394.55 250.92,383.13 300.05,352 C313.87,343.24 324.54,338.1314 339.57,332.5114" fill="none" id="Admin-to-UC_CreateUser" style="stroke:#181818;stroke-width:1;"/><polygon fill="#181818" points="345.19,330.41,335.3591,329.8155,340.5067,332.1612,338.161,337.3088,345.19,330.41" style="stroke:#181818;stroke-width:1;"/></g><!--link Admin to UC_CreateColor--><g class="link" data-entity-1="ent0003" data-entity-2="ent0008" data-link-type="dependency" data-source-line="38" id="lnk20"><path d="M160.83,534.39 C166.09,526.48 171.27,517.69 175.05,509 C198.19,455.82 177.45,433.01 205.05,382 C234.21,328.08 250.58,318.22 300.05,282 C315.89,270.4 329.7152,262.9149 346.5752,255.3549" fill="none" id="Admin-to-UC_CreateColor" style="stroke:#181818;stroke-width:1;"/><polygon fill="#181818" points="352.05,252.9,342.2012,252.9325,347.4877,254.9457,345.4744,260.2322,352.05,252.9" style="stroke:#181818;stroke-width:1;"/></g><!--link Admin to UC_DeleteUser--><g class="link" data-entity-1="ent0003" data-entity-2="ent0010" data-link-type="dependency" data-source-line="39" id="lnk21"><path d="M160.9,538.41 C189.9,507.24 243.93,453.77 300.05,422 C314.39,413.89 325.3322,408.9832 340.4622,403.4732" fill="none" id="Admin-to-UC_DeleteUser" style="stroke:#181818;stroke-width:1;"/><polygon fill="#181818" points="346.1,401.42,336.2746,400.7412,341.4018,403.131,339.0121,408.2582,346.1,401.42" style="stroke:#181818;stroke-width:1;"/></g><!--link Admin to UC_DeleteColor--><g class="link" data-entity-1="ent0003" data-entity-2="ent0011" data-link-type="dependency" data-source-line="40" id="lnk22"><path d="M160.59,554.05 C203.46,536.29 294.2166,498.7059 348.2766,476.3159" fill="none" id="Admin-to-UC_DeleteColor" style="stroke:#181818;stroke-width:1;"/><polygon fill="#181818" points="353.82,474.02,343.9744,473.7683,349.2005,475.9332,347.0355,481.1594,353.82,474.02" style="stroke:#181818;stroke-width:1;"/></g><!--link UC_CreateUser to UC_UserID--><g class="link" data-entity-1="ent0009" data-entity-2="ent0013" data-link-type="dependency" data-source-line="43" id="lnk23"><path d="M471.03,314.98 C506.09,312.14 547.42,305.34 581.96,290 C605.96,279.35 624.1474,262.5469 637.2674,248.4169" fill="none" id="UC_CreateUser-to-UC_UserID" style="stroke:#181818;stroke-width:1;stroke-dasharray:7,7;"/><polygon fill="#181818" points="641.35,244.02,632.2949,247.8936,637.9478,247.6841,638.1574,253.337,641.35,244.02" style="stroke:#181818;stroke-width:1;"/><text fill="#000000" font-family="sans-serif" font-size="13" lengthAdjust="spacing" textLength="63.0068" x="517.96" y="286.0669">«include»</text></g><!--link UC_CreateColor to UC_UserID--><g class="link" data-entity-1="ent0008" data-entity-2="ent0013" data-link-type="dependency" data-source-line="44" id="lnk24"><path d="M446.19,222.95 C483.81,214.47 536.01,206.31 581.96,212 C595.81,213.72 605.0425,215.6574 617.7325,219.1274" fill="none" id="UC_CreateColor-to-UC_UserID" style="stroke:#181818;stroke-width:1;stroke-dasharray:7,7;"/><polygon fill="#181818" points="623.52,220.71,615.8937,214.4778,618.6971,219.3912,613.7837,222.1945,623.52,220.71" style="stroke:#181818;stroke-width:1;"/><text fill="#000000" font-family="sans-serif" font-size="13" lengthAdjust="spacing" textLength="63.0068" x="517.96" y="207.0669">«include»</text></g><!--link UC_CreateColor to UC_ColorID--><g class="link" data-entity-1="ent0008" data-entity-2="ent0014" data-link-type="dependency" data-source-line="45" id="lnk25"><path d="M472.63,234.99 C508.85,237.68 550.69,246.31 581.96,269 C623.84,299.4 641.9003,356.0028 648.8803,384.4528" fill="none" id="UC_CreateColor-to-UC_ColorID" style="stroke:#181818;stroke-width:1;stroke-dasharray:7,7;"/><polygon fill="#181818" points="650.31,390.28,652.0503,380.5861,649.1186,385.424,644.2807,382.4923,650.31,390.28" style="stroke:#181818;stroke-width:1;"/><text fill="#000000" font-family="sans-serif" font-size="13" lengthAdjust="spacing" textLength="63.0068" x="517.96" y="239.0669">«include»</text></g><!--link UC_DeleteUser to UC_UserID--><g class="link" data-entity-1="ent0010" data-entity-2="ent0013" data-link-type="dependency" data-source-line="46" id="lnk26"><path d="M463.18,379.17 C501,372.16 547.18,358.93 581.96,334 C614.73,310.51 634.8941,272.5343 645.0241,249.9543" fill="none" id="UC_DeleteUser-to-UC_UserID" style="stroke:#181818;stroke-width:1;stroke-dasharray:7,7;"/><polygon fill="#181818" points="647.48,244.48,640.1465,251.0542,645.4334,249.0419,647.4457,254.3288,647.48,244.48" style="stroke:#181818;stroke-width:1;"/><text fill="#000000" font-family="sans-serif" font-size="13" lengthAdjust="spacing" textLength="63.0068" x="517.96" y="330.0669">«include»</text></g><!--link UC_DeleteColor to UC_UserID--><g class="link" data-entity-1="ent0011" data-entity-2="ent0013" data-link-type="dependency" data-source-line="47" id="lnk27"><path d="M459.39,447.71 C498.96,438.49 548.24,421.36 581.96,390 C626.07,348.97 643.5688,281.5846 649.7588,250.4846" fill="none" id="UC_DeleteColor-to-UC_UserID" style="stroke:#181818;stroke-width:1;stroke-dasharray:7,7;"/><polygon fill="#181818" points="650.93,244.6,645.2501,252.646,649.954,249.5038,653.0962,254.2077,650.93,244.6" style="stroke:#181818;stroke-width:1;"/><text fill="#000000" font-family="sans-serif" font-size="13" lengthAdjust="spacing" textLength="63.0068" x="517.96" y="386.0669">«include»</text></g><!--link UC_DeleteColor to UC_ColorID--><g class="link" data-entity-1="ent0011" data-entity-2="ent0014" data-link-type="dependency" data-source-line="48" id="lnk28"><path d="M456.53,469.44 C493.87,473.8 541.8,474.85 581.96,461 C605.81,452.77 623.64,437.2933 636.77,423.5833" fill="none" id="UC_DeleteColor-to-UC_ColorID" style="stroke:#181818;stroke-width:1;stroke-dasharray:7,7;"/><polygon fill="#181818" points="640.92,419.25,631.8061,422.9833,637.4617,422.8611,637.5839,428.5166,640.92,419.25" style="stroke:#181818;stroke-width:1;"/><text fill="#000000" font-family="sans-serif" font-size="13" lengthAdjust="spacing" textLength="63.0068" x="517.96" y="457.0669">«include»</text></g><!--link UC_Login to UC_VerifyCredentials--><g class="link" data-entity-1="ent0005" data-entity-2="ent0012" data-link-type="dependency" data-source-line="49" id="lnk29"><path d="M168.06,57.69 C200.19,58.45 247.5517,59.5672 294.1817,60.6772" fill="none" id="UC_Login-to-UC_VerifyCredentials" style="stroke:#181818;stroke-width:1;stroke-dasharray:7,7;"/><polygon fill="#181818" points="300.18,60.82,291.2777,56.607,295.1814,60.701,291.0874,64.6047,300.18,60.82" style="stroke:#181818;stroke-width:1;"/><text fill="#000000" font-family="sans-serif" font-size="13" lengthAdjust="spacing" textLength="63.0068" x="206.05" y="55.0669">«include»</text></g><!--link UC_VerifyCredentials to UC_UserID--><g class="link" data-entity-1="ent0012" data-entity-2="ent0013" data-link-type="dependency" data-source-line="50" id="lnk30"><path d="M451.45,79.79 C490.63,93.13 542.5,114.48 581.96,144 C609.17,164.36 629.3349,192.0362 641.4449,210.7062" fill="none" id="UC_VerifyCredentials-to-UC_UserID" style="stroke:#181818;stroke-width:1;stroke-dasharray:7,7;"/><polygon fill="#181818" points="644.71,215.74,643.1682,206.0126,641.9891,211.5452,636.4565,210.366,644.71,215.74" style="stroke:#181818;stroke-width:1;"/><text fill="#000000" font-family="sans-serif" font-size="13" lengthAdjust="spacing" textLength="63.0068" x="517.96" y="104.0669">«include»</text></g><!--link UC_SearchColors to UC_UserID--><g class="link" data-entity-1="ent0007" data-entity-2="ent0013" data-link-type="dependency" data-source-line="51" id="lnk31"><path d="M471.95,158.97 C506.44,164.15 547.05,172.54 581.96,186 C601.82,193.66 617.4093,203.4003 631.3393,213.3603" fill="none" id="UC_SearchColors-to-UC_UserID" style="stroke:#181818;stroke-width:1;stroke-dasharray:7,7;"/><polygon fill="#181818" points="636.22,216.85,631.2254,208.3615,632.1527,213.9419,626.5724,214.8692,636.22,216.85" style="stroke:#181818;stroke-width:1;"/><text fill="#000000" font-family="sans-serif" font-size="13" lengthAdjust="spacing" textLength="63.0068" x="517.96" y="165.0669">«include»</text></g><?plantuml-src dLFDYjim4BxhAOPSiZra7w0iXf2K4jX28MolPI9FRB6AP2JvOCf2Nw6ls2UfD8eJUPtjmfxYcU_xDD_yHDCnGB3WLDC6g9KZ6PGrmZyhqw734tGedx6XVHWqGOBHD9g4MC9Q1kkymFG3JvxS-NDTdvGHoqJP3pxG2GwsDpMwGLpqiDXO7TNmkFxs7TPTfvN4L7a1lmJ0Chq74Zrv22q6E92sfabEKo6uwpHAgk6ed0-Veg3tbDYmUBIDYe-WXwVDJmvUeROF1HoZ4jyJEja2UuCl9ZX5VcHdBDikDHj76AZG3ACY8mm8RkghitsNvxDof2DOftV6Hcr3eOrZXCid3sDUYsTmenGlOIBOagQRWWoyARZHJKPoDm0lkQET2UGCQl3zuU_lFyVUyFrukFCjEgedk_b1JXs7R2OQhia4XVeou0mNGAbbqMuxSbEusqxMm8wl38uZvOLFrNih5MPhg-p06j3n-WK7grLrFPXNcNGZELNDxg2aJjOzgybRJqNvhoPoM0fv5_DqVg_C5wixfylyfVxEIDtNwJ-hiubMTT5mMGxkxwlhDE4pF3oehAegCNNm0Ufv0tFkjO7tNYrQ-W3rJGEyvf4rExivVqvvnqnv8__Z_WC0?></g></svg>